<svg width="25" height="25" viewBox="0 0 25 25" fill="none" xmlns="http://www.w3.org/2000/svg">
<g clip-path="url(#clip0_114_172)">
<path d="M1.25 5.75052C1.05109 5.75052 0.860321 5.82954 0.719669 5.97019C0.579018 6.11084 0.5 6.30161 0.5 6.50052V18.5005C0.5 18.6994 0.579018 18.8902 0.719669 19.0309C0.860321 19.1715 1.05109 19.2505 1.25 19.2505C1.44891 19.2505 1.63968 19.1715 1.78033 19.0309C1.92098 18.8902 2 18.6994 2 18.5005V13.63L11.4005 19.084C12.2105 19.5535 13.25 18.985 13.25 18.0385V13.6285L22.6505 19.0825C23.4605 19.555 24.5 18.9865 24.5 18.04V6.96252C24.5 6.01752 23.4605 5.44752 22.6505 5.91852L13.25 11.3725V6.96252C13.25 6.01752 12.2105 5.44752 11.4005 5.91852L2 11.3725V6.50052C2 6.30161 1.92098 6.11084 1.78033 5.97019C1.63968 5.82954 1.44891 5.75052 1.25 5.75052Z" fill="white" fill-opacity="0.6"/>
</g>
<defs>
<clipPath id="clip0_114_172">
<rect width="24" height="24" fill="white" transform="matrix(-1 0 0 1 24.5 0.5)"/>
</clipPath>
</defs>
</svg>
