<svg width="24" height="18" viewBox="0 0 24 18" fill="none" xmlns="http://www.w3.org/2000/svg">
<path d="M0 2.99976C0 2.20411 0.31607 1.44104 0.87868 0.878435C1.44129 0.315826 2.20435 -0.000244141 3 -0.000244141H12C12.7956 -0.000244141 13.5587 0.315826 14.1213 0.878435C14.6839 1.44104 15 2.20411 15 2.99976V14.9998C15 15.7954 14.6839 16.5585 14.1213 17.1211C13.5587 17.6837 12.7956 17.9998 12 17.9998H3C2.20435 17.9998 1.44129 17.6837 0.87868 17.1211C0.31607 16.5585 0 15.7954 0 14.9998V2.99976ZM18.8295 4.65876C18.5804 4.78324 18.3708 4.97462 18.2243 5.21147C18.0778 5.44831 18.0001 5.72126 18 5.99976V11.9998C18.0001 12.2782 18.0778 12.5512 18.2243 12.788C18.3708 13.0249 18.5804 13.2163 18.8295 13.3408L21.8295 14.8408C22.0581 14.955 22.3122 15.0089 22.5675 14.9974C22.8228 14.9859 23.071 14.9094 23.2884 14.775C23.5058 14.6407 23.6853 14.453 23.8099 14.2298C23.9344 14.0067 23.9999 13.7553 24 13.4998V4.49976C23.9999 4.24417 23.9344 3.99286 23.8099 3.76966C23.6853 3.54647 23.5058 3.3588 23.2884 3.22446C23.071 3.09013 22.8228 3.01358 22.5675 3.00208C22.3122 2.99058 22.0581 3.04451 21.8295 3.15876L18.8295 4.65876Z" fill="white" fill-opacity="0.6"/>
</svg>
