<svg width="38" height="37" viewBox="0 0 38 37" fill="none" xmlns="http://www.w3.org/2000/svg">
<path d="M7.635 21.1951L18.1013 31.0271C18.4618 31.3658 18.6421 31.5351 18.8546 31.5768C18.9503 31.5956 19.0488 31.5956 19.1445 31.5768C19.3571 31.5351 19.5373 31.3658 19.8978 31.0271L30.3641 21.1951C33.3089 18.4288 33.6665 13.8766 31.1898 10.6844C28.0132 6.59013 21.637 7.27678 19.405 11.9535L19.025 12.7496C19.0148 12.771 18.9844 12.771 18.9742 12.7496L18.5942 11.9535C16.3621 7.27677 9.9859 6.59013 6.80932 10.6844C4.33261 13.8766 4.69021 18.4288 7.635 21.1951Z" stroke="#EBEBF5" stroke-opacity="0.3" stroke-width="1.80645"/>
</svg>
