<svg width="24" height="24" viewBox="0 0 24 24" fill="none" xmlns="http://www.w3.org/2000/svg">
<mask id="path-1-inside-1_76_370" fill="white">
<path d="M10.5714 13.4284H2V10.5713H10.5714V1.99983H13.4286V10.5713H22V13.4284H13.4286V21.9998H10.5714V13.4284Z"/>
</mask>
<path d="M10.5714 13.4284H2V10.5713H10.5714V1.99983H13.4286V10.5713H22V13.4284H13.4286V21.9998H10.5714V13.4284Z" fill="white"/>
<path d="M10.5714 13.4284H14.8067V9.19311H10.5714V13.4284ZM2 13.4284H-2.23529V17.6637H2V13.4284ZM2 10.5713V6.33597H-2.23529V10.5713H2ZM10.5714 10.5713V14.8066H14.8067V10.5713H10.5714ZM10.5714 1.99983V-2.23546H6.33613V1.99983H10.5714ZM13.4286 1.99983H17.6639V-2.23546H13.4286V1.99983ZM13.4286 10.5713H9.19328V14.8066H13.4286V10.5713ZM22 10.5713H26.2353V6.33597H22V10.5713ZM22 13.4284V17.6637H26.2353V13.4284H22ZM13.4286 13.4284V9.19311H9.19328V13.4284H13.4286ZM13.4286 21.9998V26.2351H17.6639V21.9998H13.4286ZM10.5714 21.9998H6.33613V26.2351H10.5714V21.9998ZM10.5714 9.19311H2V17.6637H10.5714V9.19311ZM6.23529 13.4284V10.5713H-2.23529V13.4284H6.23529ZM2 14.8066H10.5714V6.33597H2V14.8066ZM14.8067 10.5713V1.99983H6.33613V10.5713H14.8067ZM10.5714 6.23513H13.4286V-2.23546H10.5714V6.23513ZM9.19328 1.99983V10.5713H17.6639V1.99983H9.19328ZM13.4286 14.8066H22V6.33597H13.4286V14.8066ZM17.7647 10.5713V13.4284H26.2353V10.5713H17.7647ZM22 9.19311H13.4286V17.6637H22V9.19311ZM9.19328 13.4284V21.9998H17.6639V13.4284H9.19328ZM13.4286 17.7645H10.5714V26.2351H13.4286V17.7645ZM14.8067 21.9998V13.4284H6.33613V21.9998H14.8067Z" fill="white" mask="url(#path-1-inside-1_76_370)"/>
</svg>
