<svg width="15" height="15" viewBox="0 0 15 15" fill="none" xmlns="http://www.w3.org/2000/svg">
<mask id="path-1-inside-1_28_91" fill="white">
<path d="M6.48818 8.51186H0.416748V6.48806H6.48818V0.416626H8.51199V6.48806H14.5834V8.51186H8.51199V14.5833H6.48818V8.51186Z"/>
</mask>
<path d="M6.48818 8.51186H0.416748V6.48806H6.48818V0.416626H8.51199V6.48806H14.5834V8.51186H8.51199V14.5833H6.48818V8.51186Z" fill="#121212"/>
<path d="M6.48818 8.51186H9.48818V5.51186H6.48818V8.51186ZM0.416748 8.51186H-2.58325V11.5119H0.416748V8.51186ZM0.416748 6.48806V3.48805H-2.58325V6.48806H0.416748ZM6.48818 6.48806V9.48806H9.48818V6.48806H6.48818ZM6.48818 0.416626V-2.58337H3.48818V0.416626H6.48818ZM8.51199 0.416626H11.512V-2.58337H8.51199V0.416626ZM8.51199 6.48806H5.51199V9.48806H8.51199V6.48806ZM14.5834 6.48806H17.5834V3.48805H14.5834V6.48806ZM14.5834 8.51186V11.5119H17.5834V8.51186H14.5834ZM8.51199 8.51186V5.51186H5.51199V8.51186H8.51199ZM8.51199 14.5833V17.5833H11.512V14.5833H8.51199ZM6.48818 14.5833H3.48818V17.5833H6.48818V14.5833ZM6.48818 5.51186H0.416748V11.5119H6.48818V5.51186ZM3.41675 8.51186V6.48806H-2.58325V8.51186H3.41675ZM0.416748 9.48806H6.48818V3.48805H0.416748V9.48806ZM9.48818 6.48806V0.416626H3.48818V6.48806H9.48818ZM6.48818 3.41663H8.51199V-2.58337H6.48818V3.41663ZM5.51199 0.416626V6.48806H11.512V0.416626H5.51199ZM8.51199 9.48806H14.5834V3.48805H8.51199V9.48806ZM11.5834 6.48806V8.51186H17.5834V6.48806H11.5834ZM14.5834 5.51186H8.51199V11.5119H14.5834V5.51186ZM5.51199 8.51186V14.5833H11.512V8.51186H5.51199ZM8.51199 11.5833H6.48818V17.5833H8.51199V11.5833ZM9.48818 14.5833V8.51186H3.48818V14.5833H9.48818Z" fill="black" mask="url(#path-1-inside-1_28_91)"/>
</svg>
