<svg width="17" height="17" viewBox="0 0 17 17" fill="none" xmlns="http://www.w3.org/2000/svg">
<path d="M15.4915 0.231051C15.6646 0.173549 15.8502 0.16533 16.0277 0.207312C16.2051 0.249293 16.3674 0.33982 16.4964 0.468766C16.6253 0.597712 16.7158 0.759991 16.7578 0.93745C16.7998 1.11491 16.7916 1.30055 16.7341 1.4736L11.8695 16.0673C11.8092 16.2483 11.6976 16.4079 11.5482 16.5265C11.3988 16.6451 11.2181 16.7177 11.0281 16.7354C10.8382 16.7531 10.6472 16.7151 10.4785 16.6261C10.3098 16.5371 10.1706 16.4009 10.0779 16.2341L7.59631 11.7664C7.49262 11.5796 7.45261 11.3641 7.48233 11.1526C7.51204 10.9411 7.60988 10.745 7.76101 10.594L10.9376 7.41742C11.1219 7.23311 11.2254 6.98313 11.2254 6.72248C11.2254 6.46183 11.1219 6.21185 10.9376 6.02754C10.7533 5.84323 10.5033 5.73969 10.2426 5.73969C9.98199 5.73969 9.73201 5.84323 9.5477 6.02754L6.37113 9.20411C6.22017 9.35524 6.02407 9.45308 5.81253 9.48279C5.60099 9.51251 5.38553 9.4725 5.19877 9.36881L0.731694 6.88649C0.564905 6.79396 0.428647 6.65489 0.339536 6.48625C0.250425 6.3176 0.212312 6.12667 0.229846 5.93674C0.24738 5.74681 0.319804 5.56609 0.438284 5.41661C0.556763 5.26714 0.71618 5.15537 0.897091 5.09493L15.4908 0.230355L15.4915 0.231051Z" fill="#111928"/>
</svg>
